<svg id="visual" viewBox="0 0 900 600" width="900" height="600" xmlns="http://www.w3.org/2000/svg" xmlns:xlink="http://www.w3.org/1999/xlink" version="1.1"><path d="M0 25L10.7 27C21.3 29 42.7 33 64.2 35C85.7 37 107.3 37 128.8 35C150.3 33 171.7 29 193 33C214.3 37 235.7 49 257 55C278.3 61 299.7 61 321.2 59C342.7 57 364.3 53 385.8 47C407.3 41 428.7 33 450 29C471.3 25 492.7 25 514.2 28C535.7 31 557.3 37 578.8 41C600.3 45 621.7 47 643 49C664.3 51 685.7 53 707 54C728.3 55 749.7 55 771.2 56C792.7 57 814.3 59 835.8 57C857.3 55 878.7 49 889.3 46L900 43L900 0L889.3 0C878.7 0 857.3 0 835.8 0C814.3 0 792.7 0 771.2 0C749.7 0 728.3 0 707 0C685.7 0 664.3 0 643 0C621.7 0 600.3 0 578.8 0C557.3 0 535.7 0 514.2 0C492.7 0 471.3 0 450 0C428.7 0 407.3 0 385.8 0C364.3 0 342.7 0 321.2 0C299.7 0 278.3 0 257 0C235.7 0 214.3 0 193 0C171.7 0 150.3 0 128.8 0C107.3 0 85.7 0 64.2 0C42.7 0 21.3 0 10.7 0L0 0Z" fill="#eac56f"></path><path d="M0 127L10.7 129C21.3 131 42.7 135 64.2 142C85.7 149 107.3 159 128.8 160C150.3 161 171.7 153 193 149C214.3 145 235.7 145 257 145C278.3 145 299.7 145 321.2 151C342.7 157 364.3 169 385.8 172C407.3 175 428.7 169 450 161C471.3 153 492.7 143 514.2 140C535.7 137 557.3 141 578.8 147C600.3 153 621.7 161 643 168C664.3 175 685.7 181 707 185C728.3 189 749.7 191 771.2 192C792.7 193 814.3 193 835.8 190C857.3 187 878.7 181 889.3 178L900 175L900 41L889.3 44C878.7 47 857.3 53 835.8 55C814.3 57 792.7 55 771.2 54C749.7 53 728.3 53 707 52C685.7 51 664.3 49 643 47C621.7 45 600.3 43 578.8 39C557.3 35 535.7 29 514.2 26C492.7 23 471.3 23 450 27C428.7 31 407.3 39 385.8 45C364.3 51 342.7 55 321.2 57C299.7 59 278.3 59 257 53C235.7 47 214.3 35 193 31C171.7 27 150.3 31 128.8 33C107.3 35 85.7 35 64.2 33C42.7 31 21.3 27 10.7 25L0 23Z" fill="#f4d487"></path><path d="M0 187L10.7 187C21.3 187 42.7 187 64.2 201C85.7 215 107.3 243 128.8 252C150.3 261 171.7 251 193 245C214.3 239 235.7 237 257 232C278.3 227 299.7 219 321.2 228C342.7 237 364.3 263 385.8 267C407.3 271 428.7 253 450 243C471.3 233 492.7 231 514.2 232C535.7 233 557.3 237 578.8 244C600.3 251 621.7 261 643 265C664.3 269 685.7 267 707 264C728.3 261 749.7 257 771.2 256C792.7 255 814.3 257 835.8 262C857.3 267 878.7 275 889.3 279L900 283L900 173L889.3 176C878.7 179 857.3 185 835.8 188C814.3 191 792.7 191 771.2 190C749.7 189 728.3 187 707 183C685.7 179 664.3 173 643 166C621.7 159 600.3 151 578.8 145C557.3 139 535.7 135 514.2 138C492.7 141 471.3 151 450 159C428.7 167 407.3 173 385.8 170C364.3 167 342.7 155 321.2 149C299.7 143 278.3 143 257 143C235.7 143 214.3 143 193 147C171.7 151 150.3 159 128.8 158C107.3 157 85.7 147 64.2 140C42.7 133 21.3 129 10.7 127L0 125Z" fill="#fce19f"></path><path d="M0 373L10.7 376C21.3 379 42.7 385 64.2 390C85.7 395 107.3 399 128.8 395C150.3 391 171.7 379 193 374C214.3 369 235.7 371 257 370C278.3 369 299.7 365 321.2 367C342.7 369 364.3 377 385.8 374C407.3 371 428.7 357 450 356C471.3 355 492.7 367 514.2 378C535.7 389 557.3 399 578.8 400C600.3 401 621.7 393 643 388C664.3 383 685.7 381 707 379C728.3 377 749.7 375 771.2 374C792.7 373 814.3 373 835.8 374C857.3 375 878.7 377 889.3 378L900 379L900 281L889.3 277C878.7 273 857.3 265 835.8 260C814.3 255 792.7 253 771.2 254C749.7 255 728.3 259 707 262C685.7 265 664.3 267 643 263C621.7 259 600.3 249 578.8 242C557.3 235 535.7 231 514.2 230C492.7 229 471.3 231 450 241C428.7 251 407.3 269 385.8 265C364.3 261 342.7 235 321.2 226C299.7 217 278.3 225 257 230C235.7 235 214.3 237 193 243C171.7 249 150.3 259 128.8 250C107.3 241 85.7 213 64.2 199C42.7 185 21.3 185 10.7 185L0 185Z" fill="#fee6b0"></path><path d="M0 391L10.7 395C21.3 399 42.7 407 64.2 414C85.7 421 107.3 427 128.8 424C150.3 421 171.7 409 193 407C214.3 405 235.7 413 257 411C278.3 409 299.7 397 321.2 394C342.7 391 364.3 397 385.8 397C407.3 397 428.7 391 450 394C471.3 397 492.7 409 514.2 419C535.7 429 557.3 437 578.8 438C600.3 439 621.7 433 643 428C664.3 423 685.7 419 707 418C728.3 417 749.7 419 771.2 416C792.7 413 814.3 405 835.8 402C857.3 399 878.7 401 889.3 402L900 403L900 377L889.3 376C878.7 375 857.3 373 835.8 372C814.3 371 792.7 371 771.2 372C749.7 373 728.3 375 707 377C685.7 379 664.3 381 643 386C621.7 391 600.3 399 578.8 398C557.3 397 535.7 387 514.2 376C492.7 365 471.3 353 450 354C428.7 355 407.3 369 385.8 372C364.3 375 342.7 367 321.2 365C299.7 363 278.3 367 257 368C235.7 369 214.3 367 193 372C171.7 377 150.3 389 128.8 393C107.3 397 85.7 393 64.2 388C42.7 383 21.3 377 10.7 374L0 371Z" fill="#ffe9bb"></path><path d="M0 439L10.7 441C21.3 443 42.7 447 64.2 450C85.7 453 107.3 455 128.8 450C150.3 445 171.7 433 193 431C214.3 429 235.7 437 257 437C278.3 437 299.7 429 321.2 431C342.7 433 364.3 445 385.8 444C407.3 443 428.7 429 450 427C471.3 425 492.7 435 514.2 444C535.7 453 557.3 461 578.8 464C600.3 467 621.7 465 643 463C664.3 461 685.7 459 707 460C728.3 461 749.7 465 771.2 462C792.7 459 814.3 449 835.8 446C857.3 443 878.7 447 889.3 449L900 451L900 401L889.3 400C878.7 399 857.3 397 835.8 400C814.3 403 792.7 411 771.2 414C749.7 417 728.3 415 707 416C685.7 417 664.3 421 643 426C621.7 431 600.3 437 578.8 436C557.3 435 535.7 427 514.2 417C492.7 407 471.3 395 450 392C428.7 389 407.3 395 385.8 395C364.3 395 342.7 389 321.2 392C299.7 395 278.3 407 257 409C235.7 411 214.3 403 193 405C171.7 407 150.3 419 128.8 422C107.3 425 85.7 419 64.2 412C42.7 405 21.3 397 10.7 393L0 389Z" fill="#ffe9bb"></path><path d="M0 469L10.7 473C21.3 477 42.7 485 64.2 488C85.7 491 107.3 489 128.8 483C150.3 477 171.7 467 193 469C214.3 471 235.7 485 257 486C278.3 487 299.7 475 321.2 474C342.7 473 364.3 483 385.8 486C407.3 489 428.7 485 450 484C471.3 483 492.7 485 514.2 490C535.7 495 557.3 503 578.8 504C600.3 505 621.7 499 643 498C664.3 497 685.7 501 707 501C728.3 501 749.7 497 771.2 491C792.7 485 814.3 477 835.8 477C857.3 477 878.7 485 889.3 489L900 493L900 449L889.3 447C878.7 445 857.3 441 835.8 444C814.3 447 792.7 457 771.2 460C749.7 463 728.3 459 707 458C685.7 457 664.3 459 643 461C621.7 463 600.3 465 578.8 462C557.3 459 535.7 451 514.2 442C492.7 433 471.3 423 450 425C428.7 427 407.3 441 385.8 442C364.3 443 342.7 431 321.2 429C299.7 427 278.3 435 257 435C235.7 435 214.3 427 193 429C171.7 431 150.3 443 128.8 448C107.3 453 85.7 451 64.2 448C42.7 445 21.3 441 10.7 439L0 437Z" fill="#fee6b0"></path><path d="M0 499L10.7 504C21.3 509 42.7 519 64.2 523C85.7 527 107.3 525 128.8 518C150.3 511 171.7 499 193 499C214.3 499 235.7 511 257 513C278.3 515 299.7 507 321.2 505C342.7 503 364.3 507 385.8 510C407.3 513 428.7 515 450 514C471.3 513 492.7 509 514.2 513C535.7 517 557.3 529 578.8 531C600.3 533 621.7 525 643 525C664.3 525 685.7 533 707 534C728.3 535 749.7 529 771.2 522C792.7 515 814.3 507 835.8 507C857.3 507 878.7 515 889.3 519L900 523L900 491L889.3 487C878.7 483 857.3 475 835.8 475C814.3 475 792.7 483 771.2 489C749.7 495 728.3 499 707 499C685.7 499 664.3 495 643 496C621.7 497 600.3 503 578.8 502C557.3 501 535.7 493 514.2 488C492.7 483 471.3 481 450 482C428.7 483 407.3 487 385.8 484C364.3 481 342.7 471 321.2 472C299.7 473 278.3 485 257 484C235.7 483 214.3 469 193 467C171.7 465 150.3 475 128.8 481C107.3 487 85.7 489 64.2 486C42.7 483 21.3 475 10.7 471L0 467Z" fill="#fce19f"></path><path d="M0 571L10.7 571C21.3 571 42.7 571 64.2 570C85.7 569 107.3 567 128.8 565C150.3 563 171.7 561 193 562C214.3 563 235.7 567 257 570C278.3 573 299.7 575 321.2 573C342.7 571 364.3 565 385.8 565C407.3 565 428.7 571 450 572C471.3 573 492.7 569 514.2 570C535.7 571 557.3 577 578.8 577C600.3 577 621.7 571 643 569C664.3 567 685.7 569 707 571C728.3 573 749.7 575 771.2 577C792.7 579 814.3 581 835.8 578C857.3 575 878.7 567 889.3 563L900 559L900 521L889.3 517C878.7 513 857.3 505 835.8 505C814.3 505 792.7 513 771.2 520C749.7 527 728.3 533 707 532C685.7 531 664.3 523 643 523C621.7 523 600.3 531 578.8 529C557.3 527 535.7 515 514.2 511C492.7 507 471.3 511 450 512C428.7 513 407.3 511 385.8 508C364.3 505 342.7 501 321.2 503C299.7 505 278.3 513 257 511C235.7 509 214.3 497 193 497C171.7 497 150.3 509 128.8 516C107.3 523 85.7 525 64.2 521C42.7 517 21.3 507 10.7 502L0 497Z" fill="#f4d487"></path><path d="M0 601L10.7 601C21.3 601 42.7 601 64.2 601C85.7 601 107.3 601 128.8 601C150.3 601 171.7 601 193 601C214.3 601 235.7 601 257 601C278.3 601 299.7 601 321.2 601C342.7 601 364.3 601 385.8 601C407.3 601 428.7 601 450 601C471.3 601 492.7 601 514.2 601C535.7 601 557.3 601 578.8 601C600.3 601 621.7 601 643 601C664.3 601 685.7 601 707 601C728.3 601 749.7 601 771.2 601C792.7 601 814.3 601 835.8 601C857.3 601 878.7 601 889.3 601L900 601L900 557L889.3 561C878.7 565 857.3 573 835.8 576C814.3 579 792.7 577 771.2 575C749.7 573 728.3 571 707 569C685.7 567 664.3 565 643 567C621.7 569 600.3 575 578.8 575C557.3 575 535.7 569 514.2 568C492.7 567 471.3 571 450 570C428.7 569 407.3 563 385.8 563C364.3 563 342.7 569 321.2 571C299.7 573 278.3 571 257 568C235.7 565 214.3 561 193 560C171.7 559 150.3 561 128.8 563C107.3 565 85.7 567 64.2 568C42.7 569 21.3 569 10.7 569L0 569Z" fill="#eac56f"></path></svg>